<svg width="97" height="95" viewBox="0 0 97 95" fill="none" xmlns="http://www.w3.org/2000/svg">
<g clip-path="url(#clip0_15_3180)">
<path d="M96.8417 38.2341C94.9152 47.1192 87.5054 53.6858 78.5009 54.5056C72.6657 55.0349 67.4252 53.668 62.8595 49.8754C61.9664 49.1339 61.8328 48.5866 62.6123 47.6619C63.6234 46.4625 64.1089 46.1856 65.1891 46.9427C67.5477 48.5933 70.002 49.9469 72.8773 50.512C82.4252 52.3859 91.5722 46.1007 93.227 36.4673C95.0666 25.7552 86.492 15.8047 75.6368 16.1218C71.0644 16.2558 67.1847 18.1075 63.9085 21.2747C63.8283 21.3528 63.7481 21.4288 63.6746 21.5136C62.7838 22.5612 62.7882 22.5902 63.9508 23.3407C71.0176 27.9039 78.0822 32.467 85.149 37.0302C85.2938 37.124 85.4363 37.2223 85.8016 37.4702C83.2804 37.4702 81.0087 37.4858 78.737 37.4568C78.2537 37.4501 77.8461 37.1285 77.4363 36.8694C72.1802 33.5347 66.9018 30.2357 61.6813 26.8474C60.6836 26.1997 60.1802 26.2287 59.4118 27.178C54.6323 33.0679 49.4341 38.5736 43.8951 43.7487C40.0043 47.385 35.8395 50.6482 31.0154 52.98C23.7726 56.48 16.7526 55.8926 9.97308 51.7248C9.27821 51.2982 8.91741 51.2021 8.24257 51.8007C6.59669 53.2592 4.67464 54.309 2.62565 55.1176C1.72587 55.4727 1.13121 55.3342 0.654599 54.376C-0.311993 52.4306 -0.365445 52.4462 1.6056 51.6354C3.09335 51.0234 4.41852 50.1658 5.63901 49.116C6.0889 48.7296 6.05994 48.4794 5.67464 48.0684C-1.5258 40.3493 -1.26077 27.4214 5.9909 19.6151C9.73478 15.5858 14.3762 13.35 19.8662 12.9301C22.7793 12.7067 25.6323 13.0462 28.4029 13.9687C29.2983 14.2657 29.7259 14.0938 30.1023 13.1467C31.7281 9.05038 33.4519 4.98977 35.149 0.92246C35.2983 0.567324 35.3339 0.0960431 35.8461 0.0111678C39.8328 0.00670068 43.8172 0.00223356 47.8038 0C50.6836 0.335034 52.8996 2.73611 53.4052 6.06858C53.8305 8.86723 52.1156 11.3845 49.3784 11.9719C49.2069 12.0076 48.9775 12.0478 48.8506 11.9674C47.4475 11.0829 46.0599 10.1739 44.6657 9.26927C45.7682 9.07942 46.7637 9.16206 47.7437 8.93424C49.0577 8.62601 50.002 7.45339 50.002 6.12219C50.002 4.84236 49.1112 3.65634 47.8461 3.34811C47.3116 3.21856 46.7481 3.16942 46.1958 3.16942C44.3784 3.16942 42.5633 3.22079 40.7459 3.23419C38.7437 3.24983 38.7971 3.26546 37.9508 5.12602C37.5789 5.94127 37.7415 6.28524 38.4675 6.75428C45.1535 11.0919 51.815 15.4674 58.4608 19.8653C59.0889 20.2807 59.3784 20.2182 59.884 19.6732C63.8795 15.358 68.7637 12.8229 74.6746 12.4231C84.3606 11.7664 94.5009 17.7501 96.8528 28.7303C97.0644 29.7175 97.0399 37.3228 96.8417 38.2363V38.2341ZM4.36729 33.662C4.31161 37.7003 5.26484 40.9032 7.3183 43.7889C11.6212 49.8397 18.3094 52.4797 25.4118 50.8805C29.345 49.996 32.6457 47.8652 35.737 45.4172C43.57 39.2124 50.3584 31.9555 56.6969 24.2542C57.1 23.7651 56.904 23.6177 56.4942 23.3563C49.8506 19.0969 43.2114 14.8308 36.5789 10.5513C36.1245 10.2587 35.8795 10.1605 35.6167 10.7903C35.0332 12.1908 34.4029 13.5756 33.7125 14.9246C33.2136 15.9029 33.4319 16.64 34.2604 17.2431C35.1891 17.9176 36.1468 18.5542 37.0911 19.2086C37.3495 19.3873 37.7303 19.5012 37.3517 19.9412C35.3539 22.2552 35.0644 22.6349 32.6724 20.8726C32.5833 20.8056 32.4787 20.7565 32.4029 20.6783C31.8907 20.1467 31.6501 20.4259 31.3896 20.9553C30.6568 22.454 29.913 23.9482 29.1179 25.4157C27.1379 29.0675 24.7927 32.4291 21.4163 34.9507C20.5804 35.5761 19.8892 35.4652 19.3428 34.6179C19.1023 34.2427 18.9085 33.825 18.6167 33.4989C17.9887 32.7976 18.2292 32.4 18.884 31.8215C22.9375 28.2434 25.9642 23.9639 27.6011 18.7485C27.8105 18.0807 27.6323 17.8149 27.051 17.5982C25.9686 17.1939 24.8617 16.8879 23.7192 16.7629C13.2314 15.6103 4.36729 23.5953 4.36729 33.6664V33.662Z" fill="#203533"/>
<path d="M48.3007 75.3112C48.3007 79.2467 48.294 83.1398 48.3073 87.0351C48.3073 87.6851 48.265 88.3038 47.4343 88.2703C46.5813 88.2346 46.51 87.5422 46.5122 86.8877C46.5234 84.882 46.5501 82.874 46.5791 80.8683C46.6503 75.7043 46.7305 70.5381 46.7973 65.3741C46.8174 63.7324 47.5011 63.3125 49.029 64.0451C50.5791 64.7866 51.078 66.2228 51.3653 67.7483C51.7439 69.7608 51.2762 71.666 50.3853 73.464C50.0869 74.0671 50.0111 74.583 50.1938 75.2531C51.2004 78.9363 52.1604 82.635 53.1024 86.336C53.2739 87.0128 53.6437 87.9397 52.6615 88.2256C51.6013 88.5361 51.4521 87.5533 51.2205 86.8118C50.1492 83.3721 49.4232 79.8498 48.7016 76.3252C48.6303 75.979 48.6303 75.5993 48.2962 75.3156L48.3007 75.3112ZM48.314 65.4143V73.1804C50.2383 71.6526 50.2673 67.1475 48.314 65.4143Z" fill="#203533"/>
<path d="M55.3408 76.3207C55.3385 74.0157 55.3207 71.7107 55.8062 69.4369C55.9465 68.7802 56.1314 68.1414 56.4788 67.563C56.931 66.8125 57.5501 66.6338 58.4499 66.712C61.2739 66.9577 62.3987 68.7579 62.7261 71.2528C63.3319 75.874 63.4811 80.4997 62.51 85.0986C62.3319 85.9429 62.0022 86.7336 61.4499 87.4037C60.1514 88.9828 58.2027 88.8957 57.069 87.1915C56.0735 85.6928 55.833 83.9528 55.6036 82.2196C55.3452 80.2607 55.3296 78.2907 55.3408 76.3185V76.3207ZM61.4967 79.0859C61.3786 76.6089 61.3073 74.344 61.1492 72.0859C61.0646 70.8843 61.0445 69.6268 59.9933 68.7311C59.4588 68.2755 58.8641 68.1593 58.2339 68.3626C57.6748 68.5413 57.4432 69.0505 57.4165 69.5866C57.2227 73.7343 56.6459 77.8775 57.2183 82.0342C57.4209 83.4949 57.5167 85.0071 58.3875 86.2869C58.9131 87.0597 59.6325 87.0865 60.1826 86.3383C60.4187 86.0166 60.5746 85.6258 60.7149 85.246C61.4722 83.1822 61.4143 81.0157 61.4967 79.0837V79.0859Z" fill="#203533"/>
<path d="M73.8107 77.4934C73.8775 80.2384 73.8241 82.7243 73.1849 85.1589C72.9577 86.0278 72.6325 86.8564 72.02 87.5354C70.7595 88.9292 68.9376 88.851 67.8396 87.3277C66.9466 86.0881 66.6147 84.6296 66.4298 83.151C65.8619 78.5967 65.755 74.038 66.4967 69.4905C66.5902 68.9143 66.784 68.3358 67.0312 67.8042C67.4788 66.8393 68.2094 66.473 69.3007 66.7656C72.3051 67.5674 73.1626 68.7088 73.6414 72.4075C73.8731 74.1877 73.7016 75.9701 73.8085 77.4956L73.8107 77.4934ZM72.1826 79.106C72.0646 76.6669 71.9911 74.3664 71.8307 72.0703C71.7461 70.8686 71.7261 69.6111 70.6659 68.7199C70.1292 68.2688 69.5323 68.1571 68.902 68.367C68.3474 68.5524 68.1225 69.0639 68.0958 69.6C67.9042 73.7477 67.3296 77.8909 67.902 82.0476C68.098 83.4748 68.2049 84.9423 69.0134 86.2065C69.5768 87.0887 70.363 87.1021 70.9421 86.2377C71.1448 85.934 71.2762 85.5788 71.4009 85.2326C72.1448 83.2046 72.0913 81.076 72.1782 79.106H72.1826Z" fill="#203533"/>
<path d="M33.3608 87.2004C33.4187 87.7119 33.4187 88.2234 32.7461 88.2792C32.1403 88.3306 31.7906 88.0402 31.7261 87.3858C31.6214 86.3159 31.4343 85.2527 31.3408 84.1806C31.2962 83.6848 31.1292 83.419 30.6214 83.419C30.5857 83.419 30.5501 83.4011 30.5122 83.3966C28.0423 83.0973 27.9332 83.1822 27.5546 85.6235C27.441 86.3561 27.3185 87.0865 26.9532 87.7521C26.7261 88.1653 26.4232 88.3596 25.9532 88.1787C25.4766 87.9955 25.2272 87.6784 25.363 87.1446C26.6548 82.1101 27.2004 76.9305 28.2829 71.8536C28.5902 70.4085 28.7483 68.9232 28.8686 67.4468C28.9488 66.473 29.6592 66.607 30.2272 66.5221C30.833 66.4283 31.2517 66.7566 31.2829 67.3843C31.6125 74.0269 32.6281 80.598 33.3563 87.1982L33.3608 87.2004ZM30.1203 72.7895C30.0245 72.7872 29.9287 72.7828 29.833 72.7805C29.3675 75.1325 28.882 77.4822 28.4432 79.8408C27.98 82.3312 27.9221 81.7326 30.3051 82.0319C30.8196 82.0967 31.029 81.9292 30.9644 81.344C30.7773 79.6108 30.6526 77.8708 30.5033 76.1331C30.4076 75.0141 30.3853 73.8839 30.118 72.7895H30.1203Z" fill="#203533"/>
<path d="M21.1425 88.5405C23.7572 90.0013 24.1359 92.9429 22.0067 94.5153C21.2138 95.1005 20.3675 95.1563 19.5033 94.6851C19.1091 94.4706 18.9087 94.1356 19.0512 93.6665C19.196 93.1953 19.5746 93.2221 19.951 93.2422C21.1314 93.3047 21.8931 92.2147 21.4677 91.0823C21.3697 90.821 21.2472 90.6982 20.9154 90.6758C19.5301 90.5798 19.4321 90.448 19.5434 89.0051C19.5724 88.641 19.5479 88.3641 19.1626 88.1876C17.4254 87.3969 16.7305 85.9652 16.5278 84.1226C15.9332 78.724 15.4454 73.3233 15.9555 67.889C16.2138 65.1395 17.7305 63.6899 20.3853 63.5135C21.1782 63.4599 21.9421 63.5894 22.5746 64.1277C22.8731 64.3823 23.0668 64.6951 22.8797 65.1038C22.6771 65.5483 22.2962 65.6443 21.8641 65.5326C21.5791 65.4589 21.3163 65.3026 21.0334 65.2244C19.9065 64.9139 18.5924 65.5058 18.0312 66.5958C17.5991 67.4312 17.3719 68.3402 17.3363 69.2716C17.1381 74.411 17.4031 79.5281 18.2405 84.6028C18.5768 86.6375 21.069 87.455 22.6325 86.0903C23.0757 85.7039 23.5479 85.0495 24.0869 85.7329C24.5434 86.3137 24.2428 87.0239 23.7149 87.5287C23.029 88.1854 22.098 88.3038 21.1403 88.5405H21.1425Z" fill="#203533"/>
<path d="M77.245 68.5167C77.2494 67.9806 77.3898 67.2235 78.363 67.3396C78.7884 67.391 79.0022 67.5272 78.9955 68.0253C78.9443 71.5499 78.9287 75.0744 78.8931 78.599C78.8664 81.1497 79.0579 83.7027 78.8085 86.2512C78.7572 86.7626 78.9844 86.8899 79.441 86.8743C80.1069 86.852 80.7751 86.8855 81.441 86.8654C82.0802 86.8475 82.4543 87.1937 82.4722 87.7722C82.4922 88.4021 81.9555 88.5093 81.4543 88.516C80.3809 88.5316 79.3074 88.5204 78.2339 88.5227C77.4276 88.5227 77.1626 88.1139 77.1693 87.3233C77.2004 84.2432 77.216 71.704 77.2494 68.5145L77.245 68.5167Z" fill="#203533"/>
</g>
<defs>
<clipPath id="clip0_15_3180">
<rect width="97" height="95" fill="white"/>
</clipPath>
</defs>
</svg>
