<svg width="176" height="101" viewBox="0 0 176 101" fill="none" xmlns="http://www.w3.org/2000/svg">
<path d="M175.713 69.2238C172.218 85.3105 158.773 97.1996 142.435 98.6838C131.848 99.6422 122.339 97.1673 114.055 90.3007C112.434 88.9581 112.192 87.9674 113.606 86.2932C115.441 84.1216 116.322 83.6202 118.282 84.991C122.561 87.9795 127.014 90.4301 132.231 91.4532C149.555 94.8461 166.152 83.4665 169.155 66.0251C172.492 46.6304 156.934 28.6148 137.238 29.189C128.942 29.4316 121.903 32.784 115.958 38.5183C115.813 38.6599 115.667 38.7974 115.534 38.951C113.917 40.8476 113.925 40.9002 116.035 42.259C128.857 50.5207 141.675 58.7824 154.498 67.0441C154.76 67.214 155.019 67.3919 155.682 67.8408C151.107 67.8408 146.985 67.8691 142.863 67.8165C141.987 67.8044 141.247 67.2221 140.503 66.753C130.967 60.7154 121.389 54.7425 111.917 48.6079C110.107 47.4352 109.193 47.4877 107.799 49.2064C99.1271 59.8702 89.6953 69.8385 79.6452 79.2082C72.5855 85.7917 65.0287 91.6999 56.2758 95.9218C43.1343 102.259 30.3969 101.195 18.0959 93.6491C16.8351 92.8767 16.1805 92.7028 14.956 93.7866C11.9697 96.4272 8.48225 98.3279 4.76448 99.7918C3.13189 100.435 2.05293 100.184 1.18815 98.4492C-0.565672 94.9269 -0.662657 94.9553 2.91368 93.4873C5.6131 92.3793 8.01753 90.8264 10.232 88.9258C11.0483 88.2262 10.9958 87.7733 10.2967 87.0292C-2.76805 73.0534 -2.28716 49.6472 10.8705 35.5137C17.6635 28.2185 26.0851 24.1705 36.0463 23.4102C41.332 23.0059 46.5086 23.6205 51.5356 25.2907C53.1601 25.8285 53.936 25.5171 54.619 23.8025C57.5689 16.386 60.6967 9.03411 63.776 1.67014C64.0467 1.02716 64.1114 0.173889 65.0408 0.0202196C72.2743 0.0121318 79.5038 0.00404392 86.7373 0C91.9623 0.606588 95.9832 4.9538 96.9005 10.9873C97.6723 16.0544 94.5607 20.6119 89.5943 21.6754C89.2831 21.7401 88.8669 21.8129 88.6365 21.6673C86.0907 20.0659 83.5731 18.4201 81.0434 16.7823C83.0437 16.4385 84.8501 16.5882 86.6281 16.1757C89.0124 15.6176 90.7258 13.4946 90.7258 11.0844C90.7258 8.76722 89.1094 6.6199 86.814 6.06183C85.8442 5.82729 84.8218 5.73832 83.8196 5.73832C80.5221 5.73832 77.2287 5.83133 73.9312 5.85559C70.2982 5.8839 70.3952 5.91221 68.8596 9.28079C68.1848 10.7568 68.4798 11.3796 69.7972 12.2288C81.9284 20.0821 94.0152 28.0041 106.074 35.9666C107.213 36.7188 107.739 36.6056 108.656 35.6188C115.906 27.806 124.768 23.2161 135.493 22.4923C153.067 21.3034 171.466 32.137 175.733 52.0169C176.117 53.8043 176.073 67.5739 175.713 69.2278V69.2238ZM7.92458 60.9459C7.82356 68.2573 9.55313 74.0563 13.279 79.281C21.0863 90.236 33.2216 95.0159 46.1085 92.1205C53.245 90.5191 59.2338 86.6612 64.8428 82.229C79.0552 70.995 91.3723 57.8563 102.873 43.9129C103.605 43.0273 103.249 42.7604 102.505 42.2873C90.451 34.5755 78.4046 26.8516 66.3703 19.1035C65.546 18.5737 65.1015 18.3958 64.6246 19.5362C63.5659 22.0717 62.4222 24.5789 61.1695 27.0215C60.2643 28.7927 60.6603 30.1272 62.1636 31.2191C63.8487 32.4403 65.5864 33.5928 67.2998 34.7777C67.7685 35.1012 68.4596 35.3075 67.7726 36.1041C64.1478 40.2936 63.6224 40.9811 59.2823 37.7904C59.1207 37.6691 58.9308 37.5801 58.7934 37.4386C57.8639 36.4761 57.4275 36.9816 56.9547 37.94C55.6252 40.6535 54.2755 43.3589 52.8328 46.0158C49.2403 52.6276 44.9851 58.7137 38.8589 63.2792C37.3421 64.4115 36.088 64.2107 35.0966 62.6767C34.6602 61.9973 34.3086 61.2411 33.7792 60.6507C32.6397 59.3809 33.0761 58.6611 34.2642 57.6137C41.6189 51.1354 47.1107 43.3872 50.0809 33.9447C50.4607 32.7355 50.1374 32.2543 49.0827 31.862C47.1188 31.1301 45.1104 30.5761 43.0373 30.3496C24.008 28.263 7.92458 42.72 7.92458 60.954V60.9459Z" fill="#203533"/>
</svg>
