<svg width="436" height="248" viewBox="0 0 436 248" fill="none" xmlns="http://www.w3.org/2000/svg">
<path d="M434.809 171.18C426.159 210.96 392.889 240.36 352.459 244.03C326.259 246.4 302.729 240.28 282.229 223.3C278.219 219.98 277.619 217.53 281.119 213.39C285.659 208.02 287.839 206.78 292.689 210.17C303.279 217.56 314.299 223.62 327.209 226.15C370.079 234.54 411.149 206.4 418.579 163.27C426.839 115.31 388.339 70.76 339.599 72.18C319.069 72.78 301.649 81.07 286.939 95.25C286.579 95.6 286.219 95.94 285.889 96.32C281.889 101.01 281.909 101.14 287.129 104.5C318.859 124.93 350.579 145.36 382.309 165.79C382.959 166.21 383.599 166.65 385.239 167.76C373.919 167.76 363.719 167.83 353.519 167.7C351.349 167.67 349.519 166.23 347.679 165.07C324.079 150.14 300.379 135.37 276.939 120.2C272.459 117.3 270.199 117.43 266.749 121.68C245.289 148.05 221.949 172.7 197.079 195.87C179.609 212.15 160.909 226.76 139.249 237.2C106.729 252.87 75.209 250.24 44.769 231.58C41.649 229.67 40.029 229.24 36.999 231.92C29.609 238.45 20.979 243.15 11.779 246.77C7.73901 248.36 5.06901 247.74 2.92901 243.45C-1.41099 234.74 -1.65099 234.81 7.19901 231.18C13.879 228.44 19.829 224.6 25.309 219.9C27.329 218.17 27.199 217.05 25.469 215.21C-6.86099 180.65 -5.67099 122.77 26.889 87.82C43.699 69.78 64.539 59.77 89.189 57.89C102.269 56.89 115.079 58.41 127.519 62.54C131.539 63.87 133.459 63.1 135.149 58.86C142.449 40.52 150.189 22.34 157.809 4.13C158.479 2.54 158.639 0.43 160.939 0.05C178.839 0.03 196.729 0.01 214.629 0C227.559 1.5 237.509 12.25 239.779 27.17C241.689 39.7 233.989 50.97 221.699 53.6C220.929 53.76 219.899 53.94 219.329 53.58C213.029 49.62 206.799 45.55 200.539 41.5C205.489 40.65 209.959 41.02 214.359 40C220.259 38.62 224.499 33.37 224.499 27.41C224.499 21.68 220.499 16.37 214.819 14.99C212.419 14.41 209.889 14.19 207.409 14.19C199.249 14.19 191.099 14.42 182.939 14.48C173.949 14.55 174.189 14.62 170.389 22.95C168.719 26.6 169.449 28.14 172.709 30.24C202.729 49.66 232.639 69.25 262.479 88.94C265.299 90.8 266.599 90.52 268.869 88.08C286.809 68.76 308.739 57.41 335.279 55.62C378.769 52.68 424.299 79.47 434.859 128.63C435.809 133.05 435.699 167.1 434.809 171.19V171.18ZM19.599 150.71C19.349 168.79 23.629 183.13 32.849 196.05C52.169 223.14 82.199 234.96 114.089 227.8C131.749 223.84 146.569 214.3 160.449 203.34C195.619 175.56 226.099 143.07 254.559 108.59C256.369 106.4 255.489 105.74 253.649 104.57C223.819 85.5 194.009 66.4 164.229 47.24C162.189 45.93 161.089 45.49 159.909 48.31C157.289 54.58 154.459 60.78 151.359 66.82C149.119 71.2 150.099 74.5 153.819 77.2C157.989 80.22 162.289 83.07 166.529 86C167.689 86.8 169.399 87.31 167.699 89.28C158.729 99.64 157.429 101.34 146.689 93.45C146.289 93.15 145.819 92.93 145.479 92.58C143.179 90.2 142.099 91.45 140.929 93.82C137.639 100.53 134.299 107.22 130.729 113.79C121.839 130.14 111.309 145.19 96.149 156.48C92.3957 159.28 89.2923 158.783 86.839 154.99C85.759 153.31 84.889 151.44 83.579 149.98C80.759 146.84 81.839 145.06 84.779 142.47C102.979 126.45 116.569 107.29 123.919 83.94C124.859 80.95 124.059 79.76 121.449 78.79C116.589 76.98 111.619 75.61 106.489 75.05C59.399 69.89 19.599 105.64 19.599 150.73V150.71Z" fill="#203533"/>
</svg>
